<?xml version="1.0" encoding="UTF-8"?>
<!DOCTYPE svg  PUBLIC '-//W3C//DTD SVG 1.1//EN'  'http://www.w3.org/Graphics/SVG/1.1/DTD/svg11.dtd'>
<svg clip-rule="evenodd" fill-rule="evenodd" image-rendering="optimizeQuality" shape-rendering="geometricPrecision" text-rendering="geometricPrecision" version="1.1" viewBox="0 0 119 119" xmlns="http://www.w3.org/2000/svg">
<path d="m-0.5-0.5h110v1c-1.517 0.010559-2.684 0.67723-3.5 2-0.789 2.2116-0.622 4.2116 0.5 6 0.742 2.6381 2.575 3.9714 5.5 4 1.876-0.0247 3.376-0.6914 4.5-2 0.667-0.3333 1.333-0.66667 2-1v109h-119v-119z" fill="#fcfcfd"/>
<path d="m109.5-0.5h9v3c-1.15-1.3502-1.817-1.1836-2 0.5 1.017 2.4733 1.017 4.9733 0 7.5-3.662 0.4661-6.995-0.2006-10-2-0.484-3.2882 0.516-5.9548 3-8v-1z" fill="#dbe8f3"/>
<path d="m118.5 2.5v7c-0.667 0.33333-1.333 0.6667-2 1 1.017-2.5267 1.017-5.0267 0-7.5 0.183-1.6836 0.85-1.8502 2-0.5z" fill="#68a4d2"/>
<path d="m76.5 3.5v3h-1c-23.31-1.99-46.976-2.6567-71-2v109c-0.99845-36.496-1.3318-73.163-1-110h73z" fill="#94bfde"/>
<path d="m76.5 3.5h23c0.3318 36.837-0.0015 73.504-1 110v-109h-21v109c-0.9984-35.496-1.3317-71.163-1-107v-3z" fill="#b5d0e7"/>
<path d="m109.5 0.5c-2.484 2.0452-3.484 4.7118-3 8-1.122-1.7884-1.289-3.7884-0.5-6 0.816-1.3228 1.983-1.9894 3.5-2z" fill="#5c9fcf"/>
<path d="m75.5 6.5c-8.3404 30.359-16.84 60.693-25.5 91-0.4966-2.3098-0.6633-4.6432-0.5-7h-10c0.2063 3.8954 0.8729 7.7287 2 11.5-0.1667 1.5-0.3333 3-0.5 4.5-1 1.333-2 1.333-3 0-0.4998-9.3274-0.6665-18.661-0.5-28h3v6h9c-0.2954-12.437-6.2954-16.27-18-11.5-1.2014 0.9025-2.0348 2.0692-2.5 3.5-0.6667 10-0.6667 20 0 30 0.4057 2.994 1.9057 5.161 4.5 6.5-6.3246 0.5-12.658 0.666-19 0.5v-15c4.7225 0.9469 8.5558-0.3864 11.5-4 5.2875-17.55-1.2125-25.217-19.5-23 0.64905 14.373-0.01761 28.373-2 42v-109c24.024-0.65667 47.69 0.00999 71 2z" fill="#1788c4"/>
<path d="m98.5 113.5c-1.8435-1.779-2.5102-4.112-2-7h-9v-10h9v-8h-9v-9h9v-8h-18c0.3291 14.177-0.0042 28.177-1 42v-109h21v109z" fill="#1588c4"/>
<path d="m109.5 2.5h5c-0.419 2.5257-0.586 4.859-0.5 7-1.668-3.7372-3.001-3.7372-4 0-0.497-2.3098-0.663-4.6432-0.5-7z" fill="#4392c9"/>
<path d="m110.5 3.5c1.175-0.21901 2.175 0.11432 3 1-1.552 1.2979-2.552 0.96455-3-1z" fill="#f0f6fa"/>
<path d="m106.5 8.5c3.005 1.7994 6.338 2.4661 10 2-1.124 1.3086-2.624 1.9753-4.5 2-2.925-0.0286-4.758-1.3619-5.5-4z" fill="#93bcdd"/>
<path d="m59.5 79.5c3.409-0.2507 6.7423 0.0827 10 1 1.7289 2.3511 2.3956 5.0178 2 8h-6v-4c-1.8464-0.2778-3.1798 0.3888-4 2 2.2497 4.1682 4.7497 8.1682 7.5 12 0.49-1.2932 0.6567-2.6266 0.5-4h5v19c-5.3437 0.166-10.677-1e-3 -16-0.5-4.6532-3.788-6.1532-8.622-4.5-14.5 1.435-1.8736 2.6016-3.8736 3.5-6-1.8548-4.8583-1.1881-9.1917 2-13z" fill="#fdb719"/>
<path d="m15.5 79.5c0.9959-0.0858 1.8292 0.2476 2.5 1 0.6667 3.3333 0.6667 6.6667 0 10-0.414 0.4574-0.914 0.7907-1.5 1-0.9909-3.9454-1.3242-7.9454-1-12z" fill="#1085c3"/>
<path d="m60.5 98.5c3.3537 2.363 6.0204 5.363 8 9-7.5925 1.407-10.259-1.593-8-9z" fill="#fff8ee"/>
</svg>